<mxfile host="app.diagrams.net" modified="2023-10-15T12:37:51.008Z" agent="Mozilla/5.0 (Windows NT 10.0; Win64; x64) AppleWebKit/537.36 (KHTML, like Gecko) Chrome/118.0.0.0 Safari/537.36" etag="HVvt2ejhK4ea6cJwMI4U" version="22.0.4" type="device">
  <diagram id="C5RBs43oDa-KdzZeNtuy" name="Page-1">
    <mxGraphModel dx="1533" dy="1964" grid="0" gridSize="10" guides="1" tooltips="1" connect="1" arrows="1" fold="1" page="1" pageScale="1" pageWidth="827" pageHeight="1169" math="0" shadow="0">
      <root>
        <mxCell id="WIyWlLk6GJQsqaUBKTNV-0" />
        <mxCell id="WIyWlLk6GJQsqaUBKTNV-1" parent="WIyWlLk6GJQsqaUBKTNV-0" />
        <mxCell id="ju0HfnpLpsYc1AHnVOAw-0" value="" style="rounded=0;whiteSpace=wrap;html=1;fontSize=16;" vertex="1" parent="WIyWlLk6GJQsqaUBKTNV-1">
          <mxGeometry x="122" y="122" width="120" height="60" as="geometry" />
        </mxCell>
        <mxCell id="ju0HfnpLpsYc1AHnVOAw-1" value="" style="rhombus;whiteSpace=wrap;html=1;fontSize=16;" vertex="1" parent="WIyWlLk6GJQsqaUBKTNV-1">
          <mxGeometry x="1446" y="46" width="59" height="56" as="geometry" />
        </mxCell>
        <mxCell id="ju0HfnpLpsYc1AHnVOAw-2" value="" style="ellipse;whiteSpace=wrap;html=1;aspect=fixed;fillColor=#000000;fontSize=16;" vertex="1" parent="WIyWlLk6GJQsqaUBKTNV-1">
          <mxGeometry x="113" y="322" width="80" height="80" as="geometry" />
        </mxCell>
        <mxCell id="ju0HfnpLpsYc1AHnVOAw-6" value="" style="ellipse;html=1;shape=endState;fillColor=#000000;strokeColor=#000000;perimeterSpacing=0;fontSize=16;" vertex="1" parent="WIyWlLk6GJQsqaUBKTNV-1">
          <mxGeometry x="309" y="324" width="87" height="87" as="geometry" />
        </mxCell>
        <mxCell id="ju0HfnpLpsYc1AHnVOAw-11" value="" style="edgeStyle=orthogonalEdgeStyle;rounded=0;orthogonalLoop=1;jettySize=auto;html=1;strokeWidth=2;fontSize=16;" edge="1" parent="WIyWlLk6GJQsqaUBKTNV-1">
          <mxGeometry relative="1" as="geometry">
            <mxPoint x="63" y="525" as="sourcePoint" />
            <mxPoint x="180.99999999999977" y="525" as="targetPoint" />
            <Array as="points">
              <mxPoint x="181" y="526" />
            </Array>
          </mxGeometry>
        </mxCell>
        <mxCell id="ju0HfnpLpsYc1AHnVOAw-7" value="" style="rhombus;whiteSpace=wrap;html=1;fontColor=#000000;fillColor=#FFFFFF;strokeColor=#000000;fontSize=16;" vertex="1" parent="WIyWlLk6GJQsqaUBKTNV-1">
          <mxGeometry x="42" y="461" width="80" height="40" as="geometry" />
        </mxCell>
        <mxCell id="ju0HfnpLpsYc1AHnVOAw-12" value="" style="ellipse;whiteSpace=wrap;html=1;aspect=fixed;fillColor=#000000;fontSize=16;" vertex="1" parent="WIyWlLk6GJQsqaUBKTNV-1">
          <mxGeometry x="861" y="34" width="80" height="80" as="geometry" />
        </mxCell>
        <mxCell id="ju0HfnpLpsYc1AHnVOAw-13" value="" style="edgeStyle=orthogonalEdgeStyle;rounded=0;orthogonalLoop=1;jettySize=auto;html=1;strokeWidth=2;fontSize=16;exitX=1;exitY=0.5;exitDx=0;exitDy=0;entryX=0;entryY=0.5;entryDx=0;entryDy=0;" edge="1" parent="WIyWlLk6GJQsqaUBKTNV-1" source="ju0HfnpLpsYc1AHnVOAw-14" target="ju0HfnpLpsYc1AHnVOAw-15">
          <mxGeometry relative="1" as="geometry">
            <mxPoint x="1161" y="186" as="sourcePoint" />
            <mxPoint x="1450" y="186" as="targetPoint" />
            <Array as="points">
              <mxPoint x="1253" y="74" />
              <mxPoint x="1253" y="74" />
            </Array>
          </mxGeometry>
        </mxCell>
        <mxCell id="ju0HfnpLpsYc1AHnVOAw-14" value="Вввод логина&lt;br&gt;и пароля" style="rounded=0;whiteSpace=wrap;html=1;fontSize=16;" vertex="1" parent="WIyWlLk6GJQsqaUBKTNV-1">
          <mxGeometry x="1094" y="44" width="120" height="60" as="geometry" />
        </mxCell>
        <mxCell id="ju0HfnpLpsYc1AHnVOAw-15" value="Проверка логина и пароля" style="rounded=0;whiteSpace=wrap;html=1;fontSize=16;" vertex="1" parent="WIyWlLk6GJQsqaUBKTNV-1">
          <mxGeometry x="1290" y="44" width="120" height="60" as="geometry" />
        </mxCell>
        <mxCell id="ju0HfnpLpsYc1AHnVOAw-16" value="Переход на главное окно" style="rounded=0;whiteSpace=wrap;html=1;fontSize=16;" vertex="1" parent="WIyWlLk6GJQsqaUBKTNV-1">
          <mxGeometry x="1595" y="42" width="120" height="60" as="geometry" />
        </mxCell>
        <mxCell id="ju0HfnpLpsYc1AHnVOAw-17" value="" style="ellipse;html=1;shape=endState;fillColor=#000000;strokeColor=#000000;perimeterSpacing=0;fontSize=16;" vertex="1" parent="WIyWlLk6GJQsqaUBKTNV-1">
          <mxGeometry x="1757" y="27" width="87" height="87" as="geometry" />
        </mxCell>
        <mxCell id="ju0HfnpLpsYc1AHnVOAw-18" value="" style="edgeStyle=orthogonalEdgeStyle;rounded=0;orthogonalLoop=1;jettySize=auto;html=1;strokeWidth=2;fontSize=16;exitX=1;exitY=0.5;exitDx=0;exitDy=0;entryX=0;entryY=0.5;entryDx=0;entryDy=0;" edge="1" parent="WIyWlLk6GJQsqaUBKTNV-1" source="ju0HfnpLpsYc1AHnVOAw-12" target="ju0HfnpLpsYc1AHnVOAw-14">
          <mxGeometry relative="1" as="geometry">
            <mxPoint x="909" y="194" as="sourcePoint" />
            <mxPoint x="1198" y="194" as="targetPoint" />
            <Array as="points">
              <mxPoint x="1016" y="74" />
              <mxPoint x="1016" y="74" />
            </Array>
          </mxGeometry>
        </mxCell>
        <mxCell id="ju0HfnpLpsYc1AHnVOAw-19" value="&lt;font style=&quot;font-size: 16px;&quot;&gt;Запуск&lt;br&gt;программы&lt;br&gt;&lt;/font&gt;" style="text;html=1;align=center;verticalAlign=middle;resizable=0;points=[];autosize=1;strokeColor=none;fillColor=none;" vertex="1" parent="WIyWlLk6GJQsqaUBKTNV-1">
          <mxGeometry x="962" y="26" width="102" height="50" as="geometry" />
        </mxCell>
        <mxCell id="ju0HfnpLpsYc1AHnVOAw-20" value="" style="edgeStyle=orthogonalEdgeStyle;rounded=0;orthogonalLoop=1;jettySize=auto;html=1;strokeWidth=2;fontSize=16;exitX=1;exitY=0.5;exitDx=0;exitDy=0;entryX=0;entryY=0.5;entryDx=0;entryDy=0;" edge="1" parent="WIyWlLk6GJQsqaUBKTNV-1" source="ju0HfnpLpsYc1AHnVOAw-15" target="ju0HfnpLpsYc1AHnVOAw-1">
          <mxGeometry relative="1" as="geometry">
            <mxPoint x="1293" y="175" as="sourcePoint" />
            <mxPoint x="1582" y="175" as="targetPoint" />
            <Array as="points">
              <mxPoint x="1424" y="74" />
              <mxPoint x="1424" y="74" />
            </Array>
          </mxGeometry>
        </mxCell>
        <mxCell id="ju0HfnpLpsYc1AHnVOAw-21" value="" style="edgeStyle=orthogonalEdgeStyle;rounded=0;orthogonalLoop=1;jettySize=auto;html=1;strokeWidth=2;fontSize=16;exitX=1;exitY=0.5;exitDx=0;exitDy=0;entryX=0;entryY=0.5;entryDx=0;entryDy=0;" edge="1" parent="WIyWlLk6GJQsqaUBKTNV-1" source="ju0HfnpLpsYc1AHnVOAw-1" target="ju0HfnpLpsYc1AHnVOAw-16">
          <mxGeometry relative="1" as="geometry">
            <mxPoint x="1456" y="151.17000000000002" as="sourcePoint" />
            <mxPoint x="1745" y="151.17000000000002" as="targetPoint" />
            <Array as="points">
              <mxPoint x="1505" y="72" />
            </Array>
          </mxGeometry>
        </mxCell>
        <mxCell id="ju0HfnpLpsYc1AHnVOAw-22" value="" style="edgeStyle=orthogonalEdgeStyle;rounded=0;orthogonalLoop=1;jettySize=auto;html=1;strokeWidth=2;fontSize=16;exitX=1;exitY=0.5;exitDx=0;exitDy=0;entryX=0;entryY=0.5;entryDx=0;entryDy=0;" edge="1" parent="WIyWlLk6GJQsqaUBKTNV-1" source="ju0HfnpLpsYc1AHnVOAw-16" target="ju0HfnpLpsYc1AHnVOAw-17">
          <mxGeometry relative="1" as="geometry">
            <mxPoint x="1616" y="154" as="sourcePoint" />
            <mxPoint x="1905" y="154" as="targetPoint" />
            <Array as="points">
              <mxPoint x="1757" y="71" />
            </Array>
          </mxGeometry>
        </mxCell>
        <mxCell id="ju0HfnpLpsYc1AHnVOAw-23" value="&lt;font style=&quot;font-size: 16px;&quot;&gt;Проверка &lt;br&gt;пройдена&lt;/font&gt;" style="text;html=1;align=center;verticalAlign=middle;resizable=0;points=[];autosize=1;strokeColor=none;fillColor=none;" vertex="1" parent="WIyWlLk6GJQsqaUBKTNV-1">
          <mxGeometry x="1505" y="26" width="90" height="50" as="geometry" />
        </mxCell>
        <mxCell id="ju0HfnpLpsYc1AHnVOAw-24" value="" style="edgeStyle=orthogonalEdgeStyle;rounded=0;orthogonalLoop=1;jettySize=auto;html=1;strokeWidth=2;fontSize=16;exitX=0.5;exitY=0;exitDx=0;exitDy=0;entryX=0.5;entryY=0;entryDx=0;entryDy=0;" edge="1" parent="WIyWlLk6GJQsqaUBKTNV-1" source="ju0HfnpLpsYc1AHnVOAw-1" target="ju0HfnpLpsYc1AHnVOAw-14">
          <mxGeometry relative="1" as="geometry">
            <mxPoint x="1328" y="241" as="sourcePoint" />
            <mxPoint x="1617" y="241" as="targetPoint" />
            <Array as="points">
              <mxPoint x="1476" y="16" />
              <mxPoint x="1154" y="16" />
            </Array>
          </mxGeometry>
        </mxCell>
        <mxCell id="ju0HfnpLpsYc1AHnVOAw-25" value="" style="edgeStyle=orthogonalEdgeStyle;rounded=0;orthogonalLoop=1;jettySize=auto;html=1;strokeWidth=2;fontSize=16;exitX=1;exitY=0.5;exitDx=0;exitDy=0;entryX=0;entryY=0.5;entryDx=0;entryDy=0;" edge="1" parent="WIyWlLk6GJQsqaUBKTNV-1" source="ju0HfnpLpsYc1AHnVOAw-28" target="ju0HfnpLpsYc1AHnVOAw-29">
          <mxGeometry relative="1" as="geometry">
            <mxPoint x="888" y="375" as="sourcePoint" />
            <mxPoint x="1177" y="375" as="targetPoint" />
            <Array as="points">
              <mxPoint x="1063" y="263" />
              <mxPoint x="1063" y="265" />
            </Array>
          </mxGeometry>
        </mxCell>
        <mxCell id="ju0HfnpLpsYc1AHnVOAw-26" value="&lt;font style=&quot;font-size: 16px;&quot;&gt;Проверка&lt;br&gt;не пройдена&lt;/font&gt;" style="text;html=1;align=center;verticalAlign=middle;resizable=0;points=[];autosize=1;strokeColor=none;fillColor=none;" vertex="1" parent="WIyWlLk6GJQsqaUBKTNV-1">
          <mxGeometry x="1235" y="-23" width="112" height="50" as="geometry" />
        </mxCell>
        <mxCell id="ju0HfnpLpsYc1AHnVOAw-28" value="" style="ellipse;whiteSpace=wrap;html=1;aspect=fixed;fillColor=#000000;fontSize=16;" vertex="1" parent="WIyWlLk6GJQsqaUBKTNV-1">
          <mxGeometry x="861" y="223" width="80" height="80" as="geometry" />
        </mxCell>
        <mxCell id="ju0HfnpLpsYc1AHnVOAw-29" value="История отчётов" style="rounded=0;whiteSpace=wrap;html=1;fontSize=16;" vertex="1" parent="WIyWlLk6GJQsqaUBKTNV-1">
          <mxGeometry x="1103" y="235" width="120" height="60" as="geometry" />
        </mxCell>
        <mxCell id="ju0HfnpLpsYc1AHnVOAw-30" value="Конкретный отчет" style="rounded=0;whiteSpace=wrap;html=1;fontSize=16;" vertex="1" parent="WIyWlLk6GJQsqaUBKTNV-1">
          <mxGeometry x="1410" y="235" width="120" height="60" as="geometry" />
        </mxCell>
        <mxCell id="ju0HfnpLpsYc1AHnVOAw-31" value="" style="rhombus;whiteSpace=wrap;html=1;fontSize=16;" vertex="1" parent="WIyWlLk6GJQsqaUBKTNV-1">
          <mxGeometry x="1625.5" y="237" width="59" height="56" as="geometry" />
        </mxCell>
        <mxCell id="ju0HfnpLpsYc1AHnVOAw-33" value="Сохранение измененного отчета" style="rounded=0;whiteSpace=wrap;html=1;fontSize=16;" vertex="1" parent="WIyWlLk6GJQsqaUBKTNV-1">
          <mxGeometry x="1780" y="235" width="120" height="60" as="geometry" />
        </mxCell>
        <mxCell id="ju0HfnpLpsYc1AHnVOAw-34" value="" style="edgeStyle=orthogonalEdgeStyle;rounded=0;orthogonalLoop=1;jettySize=auto;html=1;strokeWidth=2;fontSize=16;exitX=1;exitY=0.5;exitDx=0;exitDy=0;entryX=0;entryY=0.5;entryDx=0;entryDy=0;" edge="1" parent="WIyWlLk6GJQsqaUBKTNV-1" source="ju0HfnpLpsYc1AHnVOAw-29" target="ju0HfnpLpsYc1AHnVOAw-30">
          <mxGeometry relative="1" as="geometry">
            <mxPoint x="1216" y="337" as="sourcePoint" />
            <mxPoint x="1505" y="337" as="targetPoint" />
            <Array as="points">
              <mxPoint x="1324" y="265" />
              <mxPoint x="1324" y="265" />
            </Array>
          </mxGeometry>
        </mxCell>
        <mxCell id="ju0HfnpLpsYc1AHnVOAw-35" value="&lt;font style=&quot;font-size: 16px;&quot;&gt;Нажата кнопка&lt;br&gt;история отчетов&lt;/font&gt;" style="text;html=1;align=center;verticalAlign=middle;resizable=0;points=[];autosize=1;strokeColor=none;fillColor=none;" vertex="1" parent="WIyWlLk6GJQsqaUBKTNV-1">
          <mxGeometry x="955" y="218" width="139" height="50" as="geometry" />
        </mxCell>
        <mxCell id="ju0HfnpLpsYc1AHnVOAw-36" value="" style="edgeStyle=orthogonalEdgeStyle;rounded=0;orthogonalLoop=1;jettySize=auto;html=1;strokeWidth=2;fontSize=16;exitX=1;exitY=0.5;exitDx=0;exitDy=0;entryX=0;entryY=0.5;entryDx=0;entryDy=0;" edge="1" parent="WIyWlLk6GJQsqaUBKTNV-1" source="ju0HfnpLpsYc1AHnVOAw-30" target="ju0HfnpLpsYc1AHnVOAw-31">
          <mxGeometry relative="1" as="geometry">
            <mxPoint x="1488" y="353" as="sourcePoint" />
            <mxPoint x="1777" y="353" as="targetPoint" />
            <Array as="points">
              <mxPoint x="1573" y="265" />
              <mxPoint x="1573" y="265" />
            </Array>
          </mxGeometry>
        </mxCell>
        <mxCell id="ju0HfnpLpsYc1AHnVOAw-37" value="&lt;font style=&quot;font-size: 16px;&quot;&gt;Выбран конкретный&lt;br&gt;отчет&lt;/font&gt;" style="text;html=1;align=center;verticalAlign=middle;resizable=0;points=[];autosize=1;strokeColor=none;fillColor=none;" vertex="1" parent="WIyWlLk6GJQsqaUBKTNV-1">
          <mxGeometry x="1235" y="218" width="166" height="50" as="geometry" />
        </mxCell>
        <mxCell id="ju0HfnpLpsYc1AHnVOAw-38" value="" style="edgeStyle=orthogonalEdgeStyle;rounded=0;orthogonalLoop=1;jettySize=auto;html=1;strokeWidth=2;fontSize=16;exitX=1;exitY=0.5;exitDx=0;exitDy=0;entryX=0;entryY=0.5;entryDx=0;entryDy=0;" edge="1" parent="WIyWlLk6GJQsqaUBKTNV-1" source="ju0HfnpLpsYc1AHnVOAw-31" target="ju0HfnpLpsYc1AHnVOAw-33">
          <mxGeometry relative="1" as="geometry">
            <mxPoint x="1616" y="353" as="sourcePoint" />
            <mxPoint x="1905" y="353" as="targetPoint" />
            <Array as="points">
              <mxPoint x="1730" y="265" />
              <mxPoint x="1730" y="265" />
            </Array>
          </mxGeometry>
        </mxCell>
        <mxCell id="ju0HfnpLpsYc1AHnVOAw-39" value="" style="edgeStyle=orthogonalEdgeStyle;rounded=0;orthogonalLoop=1;jettySize=auto;html=1;strokeWidth=2;fontSize=16;exitX=1;exitY=0.5;exitDx=0;exitDy=0;entryX=0;entryY=0.5;entryDx=0;entryDy=0;" edge="1" parent="WIyWlLk6GJQsqaUBKTNV-1" source="ju0HfnpLpsYc1AHnVOAw-33" target="ju0HfnpLpsYc1AHnVOAw-42">
          <mxGeometry relative="1" as="geometry">
            <mxPoint x="1893" y="371" as="sourcePoint" />
            <mxPoint x="2182" y="371" as="targetPoint" />
            <Array as="points">
              <mxPoint x="1900" y="263" />
            </Array>
          </mxGeometry>
        </mxCell>
        <mxCell id="ju0HfnpLpsYc1AHnVOAw-40" value="&lt;font style=&quot;font-size: 16px;&quot;&gt;Кнопка сохранения&lt;br&gt;нажата&lt;/font&gt;" style="text;html=1;align=center;verticalAlign=middle;resizable=0;points=[];autosize=1;strokeColor=none;fillColor=none;" vertex="1" parent="WIyWlLk6GJQsqaUBKTNV-1">
          <mxGeometry x="1662" y="195" width="161" height="50" as="geometry" />
        </mxCell>
        <mxCell id="ju0HfnpLpsYc1AHnVOAw-42" value="" style="ellipse;html=1;shape=endState;fillColor=#000000;strokeColor=#000000;perimeterSpacing=0;fontSize=16;" vertex="1" parent="WIyWlLk6GJQsqaUBKTNV-1">
          <mxGeometry x="1981" y="219.5" width="87" height="87" as="geometry" />
        </mxCell>
        <mxCell id="ju0HfnpLpsYc1AHnVOAw-44" value="" style="edgeStyle=orthogonalEdgeStyle;rounded=0;orthogonalLoop=1;jettySize=auto;html=1;strokeWidth=2;fontSize=16;exitX=0.5;exitY=0;exitDx=0;exitDy=0;entryX=0.5;entryY=0;entryDx=0;entryDy=0;" edge="1" parent="WIyWlLk6GJQsqaUBKTNV-1" source="ju0HfnpLpsYc1AHnVOAw-31" target="ju0HfnpLpsYc1AHnVOAw-30">
          <mxGeometry relative="1" as="geometry">
            <mxPoint x="1491" y="355" as="sourcePoint" />
            <mxPoint x="1780" y="355" as="targetPoint" />
            <Array as="points">
              <mxPoint x="1655" y="213" />
              <mxPoint x="1470" y="213" />
            </Array>
          </mxGeometry>
        </mxCell>
        <mxCell id="ju0HfnpLpsYc1AHnVOAw-45" value="" style="edgeStyle=orthogonalEdgeStyle;rounded=0;orthogonalLoop=1;jettySize=auto;html=1;strokeWidth=2;fontSize=16;exitX=1;exitY=0.5;exitDx=0;exitDy=0;entryX=0;entryY=0.5;entryDx=0;entryDy=0;" edge="1" parent="WIyWlLk6GJQsqaUBKTNV-1" source="ju0HfnpLpsYc1AHnVOAw-48" target="ju0HfnpLpsYc1AHnVOAw-49">
          <mxGeometry relative="1" as="geometry">
            <mxPoint x="925" y="515.9999999999999" as="sourcePoint" />
            <mxPoint x="1214" y="515.9999999999999" as="targetPoint" />
            <Array as="points">
              <mxPoint x="941" y="417" />
            </Array>
          </mxGeometry>
        </mxCell>
        <mxCell id="ju0HfnpLpsYc1AHnVOAw-46" value="&lt;font style=&quot;font-size: 16px;&quot;&gt;Кнопка сохранения&lt;br&gt;не нажата&lt;/font&gt;" style="text;html=1;align=center;verticalAlign=middle;resizable=0;points=[];autosize=1;strokeColor=none;fillColor=none;" vertex="1" parent="WIyWlLk6GJQsqaUBKTNV-1">
          <mxGeometry x="1472" y="168" width="161" height="50" as="geometry" />
        </mxCell>
        <mxCell id="ju0HfnpLpsYc1AHnVOAw-48" value="" style="ellipse;whiteSpace=wrap;html=1;aspect=fixed;fillColor=#000000;fontSize=16;" vertex="1" parent="WIyWlLk6GJQsqaUBKTNV-1">
          <mxGeometry x="861" y="381" width="80" height="80" as="geometry" />
        </mxCell>
        <mxCell id="ju0HfnpLpsYc1AHnVOAw-49" value="Управление задачами" style="rounded=0;whiteSpace=wrap;html=1;fontSize=16;" vertex="1" parent="WIyWlLk6GJQsqaUBKTNV-1">
          <mxGeometry x="1145" y="387" width="120" height="60" as="geometry" />
        </mxCell>
        <mxCell id="ju0HfnpLpsYc1AHnVOAw-50" value="Конкретная задача" style="rounded=0;whiteSpace=wrap;html=1;fontSize=16;" vertex="1" parent="WIyWlLk6GJQsqaUBKTNV-1">
          <mxGeometry x="1452" y="387" width="120" height="60" as="geometry" />
        </mxCell>
        <mxCell id="ju0HfnpLpsYc1AHnVOAw-51" value="" style="rhombus;whiteSpace=wrap;html=1;fontSize=16;" vertex="1" parent="WIyWlLk6GJQsqaUBKTNV-1">
          <mxGeometry x="1673" y="391.5" width="59" height="56" as="geometry" />
        </mxCell>
        <mxCell id="ju0HfnpLpsYc1AHnVOAw-52" value="Сохранение измененной задачи" style="rounded=0;whiteSpace=wrap;html=1;fontSize=16;" vertex="1" parent="WIyWlLk6GJQsqaUBKTNV-1">
          <mxGeometry x="1827.5" y="389.5" width="120" height="60" as="geometry" />
        </mxCell>
        <mxCell id="ju0HfnpLpsYc1AHnVOAw-53" value="" style="edgeStyle=orthogonalEdgeStyle;rounded=0;orthogonalLoop=1;jettySize=auto;html=1;strokeWidth=2;fontSize=16;exitX=1;exitY=0.5;exitDx=0;exitDy=0;entryX=0;entryY=0.5;entryDx=0;entryDy=0;" edge="1" parent="WIyWlLk6GJQsqaUBKTNV-1" source="ju0HfnpLpsYc1AHnVOAw-49" target="ju0HfnpLpsYc1AHnVOAw-50">
          <mxGeometry relative="1" as="geometry">
            <mxPoint x="1258" y="489" as="sourcePoint" />
            <mxPoint x="1547" y="489" as="targetPoint" />
            <Array as="points">
              <mxPoint x="1366" y="417" />
              <mxPoint x="1366" y="417" />
            </Array>
          </mxGeometry>
        </mxCell>
        <mxCell id="ju0HfnpLpsYc1AHnVOAw-54" value="&lt;font style=&quot;font-size: 16px;&quot;&gt;Нажата кнопка&lt;br&gt;управление задачами&lt;br&gt;&lt;/font&gt;" style="text;html=1;align=center;verticalAlign=middle;resizable=0;points=[];autosize=1;strokeColor=none;fillColor=none;" vertex="1" parent="WIyWlLk6GJQsqaUBKTNV-1">
          <mxGeometry x="948" y="365" width="181" height="50" as="geometry" />
        </mxCell>
        <mxCell id="ju0HfnpLpsYc1AHnVOAw-56" value="&lt;font style=&quot;font-size: 16px;&quot;&gt;Выбрана конкретная&lt;br&gt;задача&lt;br&gt;&lt;/font&gt;" style="text;html=1;align=center;verticalAlign=middle;resizable=0;points=[];autosize=1;strokeColor=none;fillColor=none;" vertex="1" parent="WIyWlLk6GJQsqaUBKTNV-1">
          <mxGeometry x="1274" y="370" width="172" height="50" as="geometry" />
        </mxCell>
        <mxCell id="ju0HfnpLpsYc1AHnVOAw-57" value="" style="edgeStyle=orthogonalEdgeStyle;rounded=0;orthogonalLoop=1;jettySize=auto;html=1;strokeWidth=2;fontSize=16;exitX=1;exitY=0.5;exitDx=0;exitDy=0;entryX=0;entryY=0.5;entryDx=0;entryDy=0;" edge="1" parent="WIyWlLk6GJQsqaUBKTNV-1" source="ju0HfnpLpsYc1AHnVOAw-51" target="ju0HfnpLpsYc1AHnVOAw-52">
          <mxGeometry relative="1" as="geometry">
            <mxPoint x="1663.5" y="507.5" as="sourcePoint" />
            <mxPoint x="1952.5" y="507.5" as="targetPoint" />
            <Array as="points">
              <mxPoint x="1777.5" y="419.5" />
              <mxPoint x="1777.5" y="419.5" />
            </Array>
          </mxGeometry>
        </mxCell>
        <mxCell id="ju0HfnpLpsYc1AHnVOAw-59" value="&lt;font style=&quot;font-size: 16px;&quot;&gt;Были внесены&lt;br&gt;изменения&lt;/font&gt;" style="text;html=1;align=center;verticalAlign=middle;resizable=0;points=[];autosize=1;strokeColor=none;fillColor=none;" vertex="1" parent="WIyWlLk6GJQsqaUBKTNV-1">
          <mxGeometry x="1709" y="361" width="126" height="50" as="geometry" />
        </mxCell>
        <mxCell id="ju0HfnpLpsYc1AHnVOAw-60" value="" style="ellipse;html=1;shape=endState;fillColor=#000000;strokeColor=#000000;perimeterSpacing=0;fontSize=16;" vertex="1" parent="WIyWlLk6GJQsqaUBKTNV-1">
          <mxGeometry x="2142" y="379" width="87" height="87" as="geometry" />
        </mxCell>
        <mxCell id="ju0HfnpLpsYc1AHnVOAw-63" value="" style="edgeStyle=orthogonalEdgeStyle;rounded=0;orthogonalLoop=1;jettySize=auto;html=1;strokeWidth=2;fontSize=16;exitX=0.5;exitY=0;exitDx=0;exitDy=0;entryX=0.5;entryY=0;entryDx=0;entryDy=0;" edge="1" parent="WIyWlLk6GJQsqaUBKTNV-1" source="ju0HfnpLpsYc1AHnVOAw-51" target="ju0HfnpLpsYc1AHnVOAw-50">
          <mxGeometry relative="1" as="geometry">
            <mxPoint x="1491" y="496.9999999999999" as="sourcePoint" />
            <mxPoint x="1780" y="496.9999999999999" as="targetPoint" />
            <Array as="points">
              <mxPoint x="1703" y="374" />
              <mxPoint x="1512" y="374" />
            </Array>
          </mxGeometry>
        </mxCell>
        <mxCell id="ju0HfnpLpsYc1AHnVOAw-66" value="" style="edgeStyle=orthogonalEdgeStyle;rounded=0;orthogonalLoop=1;jettySize=auto;html=1;strokeWidth=2;fontSize=16;exitX=1;exitY=0.5;exitDx=0;exitDy=0;entryX=0;entryY=0.5;entryDx=0;entryDy=0;" edge="1" parent="WIyWlLk6GJQsqaUBKTNV-1" source="ju0HfnpLpsYc1AHnVOAw-50" target="ju0HfnpLpsYc1AHnVOAw-51">
          <mxGeometry relative="1" as="geometry">
            <mxPoint x="1540" y="524.9999999999999" as="sourcePoint" />
            <mxPoint x="1829" y="524.9999999999999" as="targetPoint" />
            <Array as="points">
              <mxPoint x="1572" y="420" />
            </Array>
          </mxGeometry>
        </mxCell>
        <mxCell id="ju0HfnpLpsYc1AHnVOAw-68" value="" style="edgeStyle=orthogonalEdgeStyle;rounded=0;orthogonalLoop=1;jettySize=auto;html=1;strokeWidth=2;fontSize=16;exitX=1;exitY=0.5;exitDx=0;exitDy=0;entryX=0;entryY=0.5;entryDx=0;entryDy=0;" edge="1" parent="WIyWlLk6GJQsqaUBKTNV-1" source="ju0HfnpLpsYc1AHnVOAw-52" target="ju0HfnpLpsYc1AHnVOAw-70">
          <mxGeometry relative="1" as="geometry">
            <mxPoint x="1859" y="516.9999999999999" as="sourcePoint" />
            <mxPoint x="2148" y="516.9999999999999" as="targetPoint" />
            <Array as="points">
              <mxPoint x="1948" y="422" />
            </Array>
          </mxGeometry>
        </mxCell>
        <mxCell id="ju0HfnpLpsYc1AHnVOAw-69" value="&lt;font style=&quot;font-size: 16px;&quot;&gt;Не были &lt;br&gt;внесены изменения&lt;/font&gt;" style="text;html=1;align=center;verticalAlign=middle;resizable=0;points=[];autosize=1;strokeColor=none;fillColor=none;" vertex="1" parent="WIyWlLk6GJQsqaUBKTNV-1">
          <mxGeometry x="1516" y="329" width="166" height="50" as="geometry" />
        </mxCell>
        <mxCell id="ju0HfnpLpsYc1AHnVOAw-70" value="Оповещение об изменении" style="rounded=0;whiteSpace=wrap;html=1;fontSize=16;" vertex="1" parent="WIyWlLk6GJQsqaUBKTNV-1">
          <mxGeometry x="1985" y="391.5" width="120" height="60" as="geometry" />
        </mxCell>
        <mxCell id="ju0HfnpLpsYc1AHnVOAw-71" value="" style="edgeStyle=orthogonalEdgeStyle;rounded=0;orthogonalLoop=1;jettySize=auto;html=1;strokeWidth=2;fontSize=16;exitX=1;exitY=0.5;exitDx=0;exitDy=0;entryX=0;entryY=0.5;entryDx=0;entryDy=0;" edge="1" parent="WIyWlLk6GJQsqaUBKTNV-1" source="ju0HfnpLpsYc1AHnVOAw-70" target="ju0HfnpLpsYc1AHnVOAw-60">
          <mxGeometry relative="1" as="geometry">
            <mxPoint x="2006" y="503.9999999999999" as="sourcePoint" />
            <mxPoint x="2295" y="503.9999999999999" as="targetPoint" />
            <Array as="points">
              <mxPoint x="2142" y="423" />
            </Array>
          </mxGeometry>
        </mxCell>
        <mxCell id="ju0HfnpLpsYc1AHnVOAw-72" value="" style="edgeStyle=orthogonalEdgeStyle;rounded=0;orthogonalLoop=1;jettySize=auto;html=1;strokeWidth=2;fontSize=16;exitX=1;exitY=0.5;exitDx=0;exitDy=0;entryX=0;entryY=0.5;entryDx=0;entryDy=0;" edge="1" parent="WIyWlLk6GJQsqaUBKTNV-1" source="ju0HfnpLpsYc1AHnVOAw-74" target="ju0HfnpLpsYc1AHnVOAw-75">
          <mxGeometry relative="1" as="geometry">
            <mxPoint x="907" y="704.9999999999999" as="sourcePoint" />
            <mxPoint x="1196" y="704.9999999999999" as="targetPoint" />
            <Array as="points">
              <mxPoint x="1103" y="579" />
            </Array>
          </mxGeometry>
        </mxCell>
        <mxCell id="ju0HfnpLpsYc1AHnVOAw-74" value="" style="ellipse;whiteSpace=wrap;html=1;aspect=fixed;fillColor=#000000;fontSize=16;" vertex="1" parent="WIyWlLk6GJQsqaUBKTNV-1">
          <mxGeometry x="861" y="539" width="80" height="80" as="geometry" />
        </mxCell>
        <mxCell id="ju0HfnpLpsYc1AHnVOAw-75" value="Создание отчета" style="rounded=0;whiteSpace=wrap;html=1;fontSize=16;" vertex="1" parent="WIyWlLk6GJQsqaUBKTNV-1">
          <mxGeometry x="1107" y="549" width="120" height="60" as="geometry" />
        </mxCell>
        <mxCell id="ju0HfnpLpsYc1AHnVOAw-76" value="&lt;font style=&quot;font-size: 16px;&quot;&gt;Нажата кнопка&lt;br&gt;создание отчета&lt;br&gt;&lt;/font&gt;" style="text;html=1;align=center;verticalAlign=middle;resizable=0;points=[];autosize=1;strokeColor=none;fillColor=none;" vertex="1" parent="WIyWlLk6GJQsqaUBKTNV-1">
          <mxGeometry x="946" y="523" width="140" height="50" as="geometry" />
        </mxCell>
        <mxCell id="ju0HfnpLpsYc1AHnVOAw-77" value="" style="edgeStyle=orthogonalEdgeStyle;rounded=0;orthogonalLoop=1;jettySize=auto;html=1;strokeWidth=2;fontSize=16;exitX=1;exitY=0.5;exitDx=0;exitDy=0;entryX=0;entryY=0.5;entryDx=0;entryDy=0;" edge="1" parent="WIyWlLk6GJQsqaUBKTNV-1" source="ju0HfnpLpsYc1AHnVOAw-78" target="ju0HfnpLpsYc1AHnVOAw-79">
          <mxGeometry relative="1" as="geometry">
            <mxPoint x="1459" y="694.9999999999999" as="sourcePoint" />
            <mxPoint x="1748" y="694.9999999999999" as="targetPoint" />
            <Array as="points">
              <mxPoint x="1502" y="577" />
            </Array>
          </mxGeometry>
        </mxCell>
        <mxCell id="ju0HfnpLpsYc1AHnVOAw-78" value="Валидация введенных данных" style="rounded=0;whiteSpace=wrap;html=1;fontSize=16;" vertex="1" parent="WIyWlLk6GJQsqaUBKTNV-1">
          <mxGeometry x="1382" y="549" width="120" height="60" as="geometry" />
        </mxCell>
        <mxCell id="ju0HfnpLpsYc1AHnVOAw-79" value="" style="rhombus;whiteSpace=wrap;html=1;fontSize=16;" vertex="1" parent="WIyWlLk6GJQsqaUBKTNV-1">
          <mxGeometry x="1552" y="549" width="59" height="56" as="geometry" />
        </mxCell>
        <mxCell id="ju0HfnpLpsYc1AHnVOAw-81" value="" style="edgeStyle=orthogonalEdgeStyle;rounded=0;orthogonalLoop=1;jettySize=auto;html=1;strokeWidth=2;fontSize=16;exitX=1;exitY=0.5;exitDx=0;exitDy=0;entryX=0;entryY=0.5;entryDx=0;entryDy=0;" edge="1" parent="WIyWlLk6GJQsqaUBKTNV-1" source="ju0HfnpLpsYc1AHnVOAw-75" target="ju0HfnpLpsYc1AHnVOAw-78">
          <mxGeometry relative="1" as="geometry">
            <mxPoint x="1219" y="690.9999999999999" as="sourcePoint" />
            <mxPoint x="1508" y="690.9999999999999" as="targetPoint" />
            <Array as="points">
              <mxPoint x="1275" y="579" />
              <mxPoint x="1275" y="579" />
            </Array>
          </mxGeometry>
        </mxCell>
        <mxCell id="ju0HfnpLpsYc1AHnVOAw-82" value="&lt;font style=&quot;font-size: 16px;&quot;&gt;Нажата кнопка &lt;br&gt;сохранить&lt;/font&gt;" style="text;html=1;align=center;verticalAlign=middle;resizable=0;points=[];autosize=1;strokeColor=none;fillColor=none;" vertex="1" parent="WIyWlLk6GJQsqaUBKTNV-1">
          <mxGeometry x="1240" y="537" width="128" height="50" as="geometry" />
        </mxCell>
        <mxCell id="ju0HfnpLpsYc1AHnVOAw-83" value="" style="edgeStyle=orthogonalEdgeStyle;rounded=0;orthogonalLoop=1;jettySize=auto;html=1;strokeWidth=2;fontSize=16;exitX=1;exitY=0.5;exitDx=0;exitDy=0;entryX=0;entryY=0.5;entryDx=0;entryDy=0;" edge="1" parent="WIyWlLk6GJQsqaUBKTNV-1" source="ju0HfnpLpsYc1AHnVOAw-79" target="ju0HfnpLpsYc1AHnVOAw-84">
          <mxGeometry relative="1" as="geometry">
            <mxPoint x="1546" y="669.9999999999999" as="sourcePoint" />
            <mxPoint x="1835" y="669.9999999999999" as="targetPoint" />
            <Array as="points">
              <mxPoint x="1611" y="575" />
            </Array>
          </mxGeometry>
        </mxCell>
        <mxCell id="ju0HfnpLpsYc1AHnVOAw-84" value="Сохранение&lt;br&gt;отчета" style="rounded=0;whiteSpace=wrap;html=1;fontSize=16;" vertex="1" parent="WIyWlLk6GJQsqaUBKTNV-1">
          <mxGeometry x="1736" y="545" width="120" height="60" as="geometry" />
        </mxCell>
        <mxCell id="ju0HfnpLpsYc1AHnVOAw-85" value="" style="ellipse;html=1;shape=endState;fillColor=#000000;strokeColor=#000000;perimeterSpacing=0;fontSize=16;" vertex="1" parent="WIyWlLk6GJQsqaUBKTNV-1">
          <mxGeometry x="1932" y="531.5" width="87" height="87" as="geometry" />
        </mxCell>
        <mxCell id="ju0HfnpLpsYc1AHnVOAw-86" value="&lt;span style=&quot;font-size: 16px;&quot;&gt;Валидация&lt;br&gt;пройдена&lt;br&gt;&lt;/span&gt;" style="text;html=1;align=center;verticalAlign=middle;resizable=0;points=[];autosize=1;strokeColor=none;fillColor=none;" vertex="1" parent="WIyWlLk6GJQsqaUBKTNV-1">
          <mxGeometry x="1611" y="523" width="101" height="50" as="geometry" />
        </mxCell>
        <mxCell id="ju0HfnpLpsYc1AHnVOAw-87" value="" style="edgeStyle=orthogonalEdgeStyle;rounded=0;orthogonalLoop=1;jettySize=auto;html=1;strokeWidth=2;fontSize=16;exitX=1;exitY=0.5;exitDx=0;exitDy=0;entryX=0;entryY=0.5;entryDx=0;entryDy=0;" edge="1" parent="WIyWlLk6GJQsqaUBKTNV-1" source="ju0HfnpLpsYc1AHnVOAw-110" target="ju0HfnpLpsYc1AHnVOAw-115">
          <mxGeometry relative="1" as="geometry">
            <mxPoint x="1244" y="1020" as="sourcePoint" />
            <mxPoint x="1533" y="1020" as="targetPoint" />
            <Array as="points">
              <mxPoint x="1307" y="900" />
              <mxPoint x="1307" y="900" />
            </Array>
          </mxGeometry>
        </mxCell>
        <mxCell id="ju0HfnpLpsYc1AHnVOAw-88" value="" style="edgeStyle=orthogonalEdgeStyle;rounded=0;orthogonalLoop=1;jettySize=auto;html=1;strokeWidth=2;fontSize=16;exitX=1;exitY=0.5;exitDx=0;exitDy=0;entryX=0;entryY=0.5;entryDx=0;entryDy=0;" edge="1" parent="WIyWlLk6GJQsqaUBKTNV-1" source="ju0HfnpLpsYc1AHnVOAw-84" target="ju0HfnpLpsYc1AHnVOAw-85">
          <mxGeometry relative="1" as="geometry">
            <mxPoint x="1787" y="651.9999999999999" as="sourcePoint" />
            <mxPoint x="2076" y="651.9999999999999" as="targetPoint" />
            <Array as="points">
              <mxPoint x="1895" y="575" />
              <mxPoint x="1895" y="575" />
            </Array>
          </mxGeometry>
        </mxCell>
        <mxCell id="ju0HfnpLpsYc1AHnVOAw-89" value="" style="edgeStyle=orthogonalEdgeStyle;rounded=0;orthogonalLoop=1;jettySize=auto;html=1;strokeWidth=2;fontSize=16;exitX=0.5;exitY=0;exitDx=0;exitDy=0;entryX=0.5;entryY=0;entryDx=0;entryDy=0;" edge="1" parent="WIyWlLk6GJQsqaUBKTNV-1" source="ju0HfnpLpsYc1AHnVOAw-79" target="ju0HfnpLpsYc1AHnVOAw-75">
          <mxGeometry relative="1" as="geometry">
            <mxPoint x="1417" y="658.9999999999999" as="sourcePoint" />
            <mxPoint x="1706" y="658.9999999999999" as="targetPoint" />
            <Array as="points">
              <mxPoint x="1582" y="523" />
              <mxPoint x="1167" y="523" />
            </Array>
          </mxGeometry>
        </mxCell>
        <mxCell id="ju0HfnpLpsYc1AHnVOAw-90" value="&lt;span style=&quot;font-size: 16px;&quot;&gt;Валидация&lt;br&gt;не пройдена&lt;br&gt;&lt;/span&gt;" style="text;html=1;align=center;verticalAlign=middle;resizable=0;points=[];autosize=1;strokeColor=none;fillColor=none;" vertex="1" parent="WIyWlLk6GJQsqaUBKTNV-1">
          <mxGeometry x="1294.5" y="477" width="112" height="50" as="geometry" />
        </mxCell>
        <mxCell id="ju0HfnpLpsYc1AHnVOAw-92" value="" style="ellipse;whiteSpace=wrap;html=1;aspect=fixed;fillColor=#000000;fontSize=16;" vertex="1" parent="WIyWlLk6GJQsqaUBKTNV-1">
          <mxGeometry x="861" y="702" width="80" height="80" as="geometry" />
        </mxCell>
        <mxCell id="ju0HfnpLpsYc1AHnVOAw-93" value="" style="edgeStyle=orthogonalEdgeStyle;rounded=0;orthogonalLoop=1;jettySize=auto;html=1;strokeWidth=2;fontSize=16;exitX=1;exitY=0.5;exitDx=0;exitDy=0;entryX=0;entryY=0.5;entryDx=0;entryDy=0;" edge="1" parent="WIyWlLk6GJQsqaUBKTNV-1" source="ju0HfnpLpsYc1AHnVOAw-94" target="ju0HfnpLpsYc1AHnVOAw-97">
          <mxGeometry relative="1" as="geometry">
            <mxPoint x="1161" y="854" as="sourcePoint" />
            <mxPoint x="1290" y="742" as="targetPoint" />
            <Array as="points" />
          </mxGeometry>
        </mxCell>
        <mxCell id="ju0HfnpLpsYc1AHnVOAw-94" value="Просмотр уведомления" style="rounded=0;whiteSpace=wrap;html=1;fontSize=16;" vertex="1" parent="WIyWlLk6GJQsqaUBKTNV-1">
          <mxGeometry x="1094" y="712" width="120" height="60" as="geometry" />
        </mxCell>
        <mxCell id="ju0HfnpLpsYc1AHnVOAw-97" value="" style="ellipse;html=1;shape=endState;fillColor=#000000;strokeColor=#000000;perimeterSpacing=0;fontSize=16;" vertex="1" parent="WIyWlLk6GJQsqaUBKTNV-1">
          <mxGeometry x="1359" y="698.5" width="87" height="87" as="geometry" />
        </mxCell>
        <mxCell id="ju0HfnpLpsYc1AHnVOAw-98" value="" style="edgeStyle=orthogonalEdgeStyle;rounded=0;orthogonalLoop=1;jettySize=auto;html=1;strokeWidth=2;fontSize=16;exitX=1;exitY=0.5;exitDx=0;exitDy=0;entryX=0;entryY=0.5;entryDx=0;entryDy=0;" edge="1" parent="WIyWlLk6GJQsqaUBKTNV-1" source="ju0HfnpLpsYc1AHnVOAw-92" target="ju0HfnpLpsYc1AHnVOAw-94">
          <mxGeometry relative="1" as="geometry">
            <mxPoint x="909" y="862" as="sourcePoint" />
            <mxPoint x="1198" y="862" as="targetPoint" />
            <Array as="points">
              <mxPoint x="1016" y="742" />
              <mxPoint x="1016" y="742" />
            </Array>
          </mxGeometry>
        </mxCell>
        <mxCell id="ju0HfnpLpsYc1AHnVOAw-99" value="&lt;font style=&quot;font-size: 16px;&quot;&gt;Нажата кнопка&amp;nbsp;&lt;br&gt;уведомления&lt;br&gt;&lt;/font&gt;" style="text;html=1;align=center;verticalAlign=middle;resizable=0;points=[];autosize=1;strokeColor=none;fillColor=none;" vertex="1" parent="WIyWlLk6GJQsqaUBKTNV-1">
          <mxGeometry x="947" y="694" width="132" height="50" as="geometry" />
        </mxCell>
        <mxCell id="ju0HfnpLpsYc1AHnVOAw-107" value="&lt;font style=&quot;font-size: 16px;&quot;&gt;Нажата кнопка&lt;br&gt;закрыть&lt;/font&gt;" style="text;html=1;align=center;verticalAlign=middle;resizable=0;points=[];autosize=1;strokeColor=none;fillColor=none;" vertex="1" parent="WIyWlLk6GJQsqaUBKTNV-1">
          <mxGeometry x="1216" y="698.5" width="128" height="50" as="geometry" />
        </mxCell>
        <mxCell id="ju0HfnpLpsYc1AHnVOAw-108" value="" style="ellipse;whiteSpace=wrap;html=1;aspect=fixed;fillColor=#000000;fontSize=16;" vertex="1" parent="WIyWlLk6GJQsqaUBKTNV-1">
          <mxGeometry x="864" y="860" width="80" height="80" as="geometry" />
        </mxCell>
        <mxCell id="ju0HfnpLpsYc1AHnVOAw-110" value="Запросы на отпуск" style="rounded=0;whiteSpace=wrap;html=1;fontSize=16;" vertex="1" parent="WIyWlLk6GJQsqaUBKTNV-1">
          <mxGeometry x="1097" y="870" width="120" height="60" as="geometry" />
        </mxCell>
        <mxCell id="ju0HfnpLpsYc1AHnVOAw-111" value="" style="ellipse;html=1;shape=endState;fillColor=#000000;strokeColor=#000000;perimeterSpacing=0;fontSize=16;" vertex="1" parent="WIyWlLk6GJQsqaUBKTNV-1">
          <mxGeometry x="2241" y="852" width="87" height="87" as="geometry" />
        </mxCell>
        <mxCell id="ju0HfnpLpsYc1AHnVOAw-112" value="" style="edgeStyle=orthogonalEdgeStyle;rounded=0;orthogonalLoop=1;jettySize=auto;html=1;strokeWidth=2;fontSize=16;exitX=1;exitY=0.5;exitDx=0;exitDy=0;entryX=0;entryY=0.5;entryDx=0;entryDy=0;" edge="1" parent="WIyWlLk6GJQsqaUBKTNV-1" source="ju0HfnpLpsYc1AHnVOAw-108" target="ju0HfnpLpsYc1AHnVOAw-110">
          <mxGeometry relative="1" as="geometry">
            <mxPoint x="912" y="1020" as="sourcePoint" />
            <mxPoint x="1201" y="1020" as="targetPoint" />
            <Array as="points">
              <mxPoint x="1019" y="900" />
              <mxPoint x="1019" y="900" />
            </Array>
          </mxGeometry>
        </mxCell>
        <mxCell id="ju0HfnpLpsYc1AHnVOAw-113" value="&lt;font style=&quot;font-size: 16px;&quot;&gt;Нажата кнопка&amp;nbsp;&lt;br&gt;запросы на отпуск&lt;br&gt;&lt;/font&gt;" style="text;html=1;align=center;verticalAlign=middle;resizable=0;points=[];autosize=1;strokeColor=none;fillColor=none;" vertex="1" parent="WIyWlLk6GJQsqaUBKTNV-1">
          <mxGeometry x="939" y="852" width="154" height="50" as="geometry" />
        </mxCell>
        <mxCell id="ju0HfnpLpsYc1AHnVOAw-115" value="Создание запроса на отпуск" style="rounded=0;whiteSpace=wrap;html=1;fontSize=16;" vertex="1" parent="WIyWlLk6GJQsqaUBKTNV-1">
          <mxGeometry x="1396" y="870" width="120" height="60" as="geometry" />
        </mxCell>
        <mxCell id="ju0HfnpLpsYc1AHnVOAw-116" value="" style="rhombus;whiteSpace=wrap;html=1;fontSize=16;" vertex="1" parent="WIyWlLk6GJQsqaUBKTNV-1">
          <mxGeometry x="1757" y="872" width="59" height="56" as="geometry" />
        </mxCell>
        <mxCell id="ju0HfnpLpsYc1AHnVOAw-118" value="Валидация введенных данных" style="rounded=0;whiteSpace=wrap;html=1;fontSize=16;" vertex="1" parent="WIyWlLk6GJQsqaUBKTNV-1">
          <mxGeometry x="1611" y="870" width="120" height="60" as="geometry" />
        </mxCell>
        <mxCell id="ju0HfnpLpsYc1AHnVOAw-119" value="Происходит создание запроса" style="rounded=0;whiteSpace=wrap;html=1;fontSize=16;" vertex="1" parent="WIyWlLk6GJQsqaUBKTNV-1">
          <mxGeometry x="1932" y="870" width="120" height="60" as="geometry" />
        </mxCell>
        <mxCell id="ju0HfnpLpsYc1AHnVOAw-120" value="Оповещение начальника о запросе" style="rounded=0;whiteSpace=wrap;html=1;fontSize=16;" vertex="1" parent="WIyWlLk6GJQsqaUBKTNV-1">
          <mxGeometry x="2104" y="870" width="120" height="60" as="geometry" />
        </mxCell>
        <mxCell id="ju0HfnpLpsYc1AHnVOAw-121" value="&lt;span style=&quot;font-size: 16px;&quot;&gt;Кнопка создать&lt;br&gt;нажата&lt;br&gt;&lt;/span&gt;" style="text;html=1;align=center;verticalAlign=middle;resizable=0;points=[];autosize=1;strokeColor=none;fillColor=none;" vertex="1" parent="WIyWlLk6GJQsqaUBKTNV-1">
          <mxGeometry x="1236" y="855" width="132" height="50" as="geometry" />
        </mxCell>
        <mxCell id="ju0HfnpLpsYc1AHnVOAw-122" value="" style="edgeStyle=orthogonalEdgeStyle;rounded=0;orthogonalLoop=1;jettySize=auto;html=1;strokeWidth=2;fontSize=16;exitX=1;exitY=0.5;exitDx=0;exitDy=0;entryX=0;entryY=0.5;entryDx=0;entryDy=0;" edge="1" parent="WIyWlLk6GJQsqaUBKTNV-1" source="ju0HfnpLpsYc1AHnVOAw-115" target="ju0HfnpLpsYc1AHnVOAw-118">
          <mxGeometry relative="1" as="geometry">
            <mxPoint x="1468" y="1016" as="sourcePoint" />
            <mxPoint x="1757" y="1016" as="targetPoint" />
            <Array as="points">
              <mxPoint x="1570" y="900" />
              <mxPoint x="1570" y="900" />
            </Array>
          </mxGeometry>
        </mxCell>
        <mxCell id="ju0HfnpLpsYc1AHnVOAw-123" value="" style="edgeStyle=orthogonalEdgeStyle;rounded=0;orthogonalLoop=1;jettySize=auto;html=1;strokeWidth=2;fontSize=16;exitX=1;exitY=0.5;exitDx=0;exitDy=0;entryX=0;entryY=0.5;entryDx=0;entryDy=0;" edge="1" parent="WIyWlLk6GJQsqaUBKTNV-1" source="ju0HfnpLpsYc1AHnVOAw-118" target="ju0HfnpLpsYc1AHnVOAw-116">
          <mxGeometry relative="1" as="geometry">
            <mxPoint x="1665" y="1006" as="sourcePoint" />
            <mxPoint x="1954" y="1006" as="targetPoint" />
            <Array as="points">
              <mxPoint x="1745" y="900" />
              <mxPoint x="1745" y="900" />
            </Array>
          </mxGeometry>
        </mxCell>
        <mxCell id="ju0HfnpLpsYc1AHnVOAw-124" value="&lt;font style=&quot;font-size: 16px;&quot;&gt;Нажата кнопка &lt;br&gt;сохранить&lt;/font&gt;" style="text;html=1;align=center;verticalAlign=middle;resizable=0;points=[];autosize=1;strokeColor=none;fillColor=none;" vertex="1" parent="WIyWlLk6GJQsqaUBKTNV-1">
          <mxGeometry x="1497.5" y="843" width="128" height="50" as="geometry" />
        </mxCell>
        <mxCell id="ju0HfnpLpsYc1AHnVOAw-125" value="" style="edgeStyle=orthogonalEdgeStyle;rounded=0;orthogonalLoop=1;jettySize=auto;html=1;strokeWidth=2;fontSize=16;exitX=1;exitY=0.5;exitDx=0;exitDy=0;entryX=0;entryY=0.5;entryDx=0;entryDy=0;" edge="1" parent="WIyWlLk6GJQsqaUBKTNV-1" source="ju0HfnpLpsYc1AHnVOAw-116" target="ju0HfnpLpsYc1AHnVOAw-119">
          <mxGeometry relative="1" as="geometry">
            <mxPoint x="1736" y="1001" as="sourcePoint" />
            <mxPoint x="2025" y="1001" as="targetPoint" />
            <Array as="points">
              <mxPoint x="1869" y="900" />
              <mxPoint x="1869" y="900" />
            </Array>
          </mxGeometry>
        </mxCell>
        <mxCell id="ju0HfnpLpsYc1AHnVOAw-126" value="" style="edgeStyle=orthogonalEdgeStyle;rounded=0;orthogonalLoop=1;jettySize=auto;html=1;strokeWidth=2;fontSize=16;" edge="1" parent="WIyWlLk6GJQsqaUBKTNV-1">
          <mxGeometry relative="1" as="geometry">
            <mxPoint x="880" y="1278" as="sourcePoint" />
            <mxPoint x="1169" y="1278" as="targetPoint" />
            <Array as="points">
              <mxPoint x="978" y="1278" />
              <mxPoint x="978" y="1278" />
            </Array>
          </mxGeometry>
        </mxCell>
        <mxCell id="ju0HfnpLpsYc1AHnVOAw-127" value="" style="edgeStyle=orthogonalEdgeStyle;rounded=0;orthogonalLoop=1;jettySize=auto;html=1;strokeWidth=2;fontSize=16;exitX=1;exitY=0.5;exitDx=0;exitDy=0;entryX=0;entryY=0.5;entryDx=0;entryDy=0;" edge="1" parent="WIyWlLk6GJQsqaUBKTNV-1" source="ju0HfnpLpsYc1AHnVOAw-119" target="ju0HfnpLpsYc1AHnVOAw-120">
          <mxGeometry relative="1" as="geometry">
            <mxPoint x="1741" y="1049" as="sourcePoint" />
            <mxPoint x="2030" y="1049" as="targetPoint" />
            <Array as="points">
              <mxPoint x="2078" y="900" />
              <mxPoint x="2078" y="900" />
            </Array>
          </mxGeometry>
        </mxCell>
        <mxCell id="ju0HfnpLpsYc1AHnVOAw-128" value="&lt;span style=&quot;font-size: 16px;&quot;&gt;Валидация&lt;br&gt;пройдена&lt;br&gt;&lt;/span&gt;" style="text;html=1;align=center;verticalAlign=middle;resizable=0;points=[];autosize=1;strokeColor=none;fillColor=none;" vertex="1" parent="WIyWlLk6GJQsqaUBKTNV-1">
          <mxGeometry x="1813" y="848" width="101" height="50" as="geometry" />
        </mxCell>
        <mxCell id="ju0HfnpLpsYc1AHnVOAw-129" value="" style="edgeStyle=orthogonalEdgeStyle;rounded=0;orthogonalLoop=1;jettySize=auto;html=1;strokeWidth=2;fontSize=16;exitX=1;exitY=0.5;exitDx=0;exitDy=0;entryX=0;entryY=0.5;entryDx=0;entryDy=0;" edge="1" parent="WIyWlLk6GJQsqaUBKTNV-1" source="ju0HfnpLpsYc1AHnVOAw-120" target="ju0HfnpLpsYc1AHnVOAw-111">
          <mxGeometry relative="1" as="geometry">
            <mxPoint x="1751" y="1059" as="sourcePoint" />
            <mxPoint x="2040" y="1059" as="targetPoint" />
            <Array as="points">
              <mxPoint x="2224" y="896" />
            </Array>
          </mxGeometry>
        </mxCell>
        <mxCell id="ju0HfnpLpsYc1AHnVOAw-130" value="" style="edgeStyle=orthogonalEdgeStyle;rounded=0;orthogonalLoop=1;jettySize=auto;html=1;strokeWidth=2;fontSize=16;exitX=0.5;exitY=0;exitDx=0;exitDy=0;entryX=0.5;entryY=0;entryDx=0;entryDy=0;" edge="1" parent="WIyWlLk6GJQsqaUBKTNV-1" source="ju0HfnpLpsYc1AHnVOAw-116" target="ju0HfnpLpsYc1AHnVOAw-115">
          <mxGeometry relative="1" as="geometry">
            <mxPoint x="1761" y="1069" as="sourcePoint" />
            <mxPoint x="2050" y="1069" as="targetPoint" />
            <Array as="points">
              <mxPoint x="1787" y="833" />
              <mxPoint x="1456" y="833" />
            </Array>
          </mxGeometry>
        </mxCell>
        <mxCell id="ju0HfnpLpsYc1AHnVOAw-131" value="&lt;span style=&quot;font-size: 16px;&quot;&gt;Валидация&lt;br&gt;не пройдена&lt;br&gt;&lt;/span&gt;" style="text;html=1;align=center;verticalAlign=middle;resizable=0;points=[];autosize=1;strokeColor=none;fillColor=none;" vertex="1" parent="WIyWlLk6GJQsqaUBKTNV-1">
          <mxGeometry x="1561" y="788" width="112" height="50" as="geometry" />
        </mxCell>
        <mxCell id="ju0HfnpLpsYc1AHnVOAw-132" value="" style="ellipse;whiteSpace=wrap;html=1;aspect=fixed;fillColor=#000000;fontSize=16;" vertex="1" parent="WIyWlLk6GJQsqaUBKTNV-1">
          <mxGeometry x="864" y="976" width="80" height="80" as="geometry" />
        </mxCell>
        <mxCell id="ju0HfnpLpsYc1AHnVOAw-133" value="" style="edgeStyle=orthogonalEdgeStyle;rounded=0;orthogonalLoop=1;jettySize=auto;html=1;strokeWidth=2;fontSize=16;exitX=1;exitY=0.5;exitDx=0;exitDy=0;entryX=0;entryY=0.5;entryDx=0;entryDy=0;" edge="1" parent="WIyWlLk6GJQsqaUBKTNV-1" source="ju0HfnpLpsYc1AHnVOAw-134" target="ju0HfnpLpsYc1AHnVOAw-135">
          <mxGeometry relative="1" as="geometry">
            <mxPoint x="1164" y="1128" as="sourcePoint" />
            <mxPoint x="1293" y="1016" as="targetPoint" />
            <Array as="points" />
          </mxGeometry>
        </mxCell>
        <mxCell id="ju0HfnpLpsYc1AHnVOAw-134" value="Просмотр командировок" style="rounded=0;whiteSpace=wrap;html=1;fontSize=16;" vertex="1" parent="WIyWlLk6GJQsqaUBKTNV-1">
          <mxGeometry x="1097" y="986" width="120" height="60" as="geometry" />
        </mxCell>
        <mxCell id="ju0HfnpLpsYc1AHnVOAw-135" value="" style="ellipse;html=1;shape=endState;fillColor=#000000;strokeColor=#000000;perimeterSpacing=0;fontSize=16;" vertex="1" parent="WIyWlLk6GJQsqaUBKTNV-1">
          <mxGeometry x="1362" y="972.5" width="87" height="87" as="geometry" />
        </mxCell>
        <mxCell id="ju0HfnpLpsYc1AHnVOAw-136" value="" style="edgeStyle=orthogonalEdgeStyle;rounded=0;orthogonalLoop=1;jettySize=auto;html=1;strokeWidth=2;fontSize=16;exitX=1;exitY=0.5;exitDx=0;exitDy=0;entryX=0;entryY=0.5;entryDx=0;entryDy=0;" edge="1" parent="WIyWlLk6GJQsqaUBKTNV-1" source="ju0HfnpLpsYc1AHnVOAw-132" target="ju0HfnpLpsYc1AHnVOAw-134">
          <mxGeometry relative="1" as="geometry">
            <mxPoint x="912" y="1136" as="sourcePoint" />
            <mxPoint x="1201" y="1136" as="targetPoint" />
            <Array as="points">
              <mxPoint x="1019" y="1016" />
              <mxPoint x="1019" y="1016" />
            </Array>
          </mxGeometry>
        </mxCell>
        <mxCell id="ju0HfnpLpsYc1AHnVOAw-137" value="&lt;font style=&quot;font-size: 16px;&quot;&gt;Нажата кнопка&amp;nbsp;&lt;br&gt;командировки&lt;br&gt;&lt;/font&gt;" style="text;html=1;align=center;verticalAlign=middle;resizable=0;points=[];autosize=1;strokeColor=none;fillColor=none;" vertex="1" parent="WIyWlLk6GJQsqaUBKTNV-1">
          <mxGeometry x="950" y="968" width="132" height="50" as="geometry" />
        </mxCell>
        <mxCell id="ju0HfnpLpsYc1AHnVOAw-138" value="&lt;font style=&quot;font-size: 16px;&quot;&gt;Нажата кнопка&lt;br&gt;закрыть&lt;/font&gt;" style="text;html=1;align=center;verticalAlign=middle;resizable=0;points=[];autosize=1;strokeColor=none;fillColor=none;" vertex="1" parent="WIyWlLk6GJQsqaUBKTNV-1">
          <mxGeometry x="1219" y="972.5" width="128" height="50" as="geometry" />
        </mxCell>
        <mxCell id="ju0HfnpLpsYc1AHnVOAw-139" value="" style="ellipse;whiteSpace=wrap;html=1;aspect=fixed;fillColor=#000000;fontSize=16;" vertex="1" parent="WIyWlLk6GJQsqaUBKTNV-1">
          <mxGeometry x="864" y="1101" width="80" height="80" as="geometry" />
        </mxCell>
        <mxCell id="ju0HfnpLpsYc1AHnVOAw-140" value="" style="edgeStyle=orthogonalEdgeStyle;rounded=0;orthogonalLoop=1;jettySize=auto;html=1;strokeWidth=2;fontSize=16;exitX=1;exitY=0.5;exitDx=0;exitDy=0;entryX=0;entryY=0.5;entryDx=0;entryDy=0;" edge="1" parent="WIyWlLk6GJQsqaUBKTNV-1" source="ju0HfnpLpsYc1AHnVOAw-141" target="ju0HfnpLpsYc1AHnVOAw-142">
          <mxGeometry relative="1" as="geometry">
            <mxPoint x="1164" y="1253" as="sourcePoint" />
            <mxPoint x="1293" y="1141" as="targetPoint" />
            <Array as="points" />
          </mxGeometry>
        </mxCell>
        <mxCell id="ju0HfnpLpsYc1AHnVOAw-141" value="Просмотр рабочего графика" style="rounded=0;whiteSpace=wrap;html=1;fontSize=16;" vertex="1" parent="WIyWlLk6GJQsqaUBKTNV-1">
          <mxGeometry x="1097" y="1111" width="120" height="60" as="geometry" />
        </mxCell>
        <mxCell id="ju0HfnpLpsYc1AHnVOAw-142" value="" style="ellipse;html=1;shape=endState;fillColor=#000000;strokeColor=#000000;perimeterSpacing=0;fontSize=16;" vertex="1" parent="WIyWlLk6GJQsqaUBKTNV-1">
          <mxGeometry x="1362" y="1097.5" width="87" height="87" as="geometry" />
        </mxCell>
        <mxCell id="ju0HfnpLpsYc1AHnVOAw-143" value="" style="edgeStyle=orthogonalEdgeStyle;rounded=0;orthogonalLoop=1;jettySize=auto;html=1;strokeWidth=2;fontSize=16;exitX=1;exitY=0.5;exitDx=0;exitDy=0;entryX=0;entryY=0.5;entryDx=0;entryDy=0;" edge="1" parent="WIyWlLk6GJQsqaUBKTNV-1" source="ju0HfnpLpsYc1AHnVOAw-139" target="ju0HfnpLpsYc1AHnVOAw-141">
          <mxGeometry relative="1" as="geometry">
            <mxPoint x="912" y="1261" as="sourcePoint" />
            <mxPoint x="1201" y="1261" as="targetPoint" />
            <Array as="points">
              <mxPoint x="1019" y="1141" />
              <mxPoint x="1019" y="1141" />
            </Array>
          </mxGeometry>
        </mxCell>
        <mxCell id="ju0HfnpLpsYc1AHnVOAw-144" value="&lt;font style=&quot;font-size: 16px;&quot;&gt;Нажата кнопка&amp;nbsp;&lt;br&gt;рабочий график&lt;br&gt;&lt;/font&gt;" style="text;html=1;align=center;verticalAlign=middle;resizable=0;points=[];autosize=1;strokeColor=none;fillColor=none;" vertex="1" parent="WIyWlLk6GJQsqaUBKTNV-1">
          <mxGeometry x="948" y="1093" width="137" height="50" as="geometry" />
        </mxCell>
        <mxCell id="ju0HfnpLpsYc1AHnVOAw-145" value="&lt;font style=&quot;font-size: 16px;&quot;&gt;Нажата кнопка&lt;br&gt;закрыть&lt;/font&gt;" style="text;html=1;align=center;verticalAlign=middle;resizable=0;points=[];autosize=1;strokeColor=none;fillColor=none;" vertex="1" parent="WIyWlLk6GJQsqaUBKTNV-1">
          <mxGeometry x="1219" y="1097.5" width="128" height="50" as="geometry" />
        </mxCell>
      </root>
    </mxGraphModel>
  </diagram>
</mxfile>
